<svg fill="none" height="16" viewBox="0 0 16 16" width="16" xmlns="http://www.w3.org/2000/svg">
    <path d="m6.5 9.5 6-6zm6-6h-4zm0 0v4z" fill="#808080" />
    <path d="m6.5 9.5 6-6m0 0h-4m4 0v4" stroke="#808080" stroke-linecap="round"
        stroke-linejoin="round" />
    <path
        d="m6 5c.27614 0 .5-.22386.5-.5s-.22386-.5-.5-.5zm6 5c0-.27614-.2239-.5-.5-.5s-.5.22386-.5.5zm-2.5 2h-4v1h4zm-5.5-1.5v-4h-1v4zm1.5-5.5h.5v-1h-.5zm5.5 5v.5h1v-.5zm-5.5 2c-.82843 0-1.5-.6716-1.5-1.5h-1c0 1.3807 1.11929 2.5 2.5 2.5zm4 1c1.3807 0 2.5-1.1193 2.5-2.5h-1c0 .8284-.6716 1.5-1.5 1.5zm-5.5-6.5c0-.82843.67157-1.5 1.5-1.5v-1c-1.38071 0-2.5 1.11929-2.5 2.5z"
        fill="#808080" />
</svg>