<svg fill="none" height="19" viewBox="0 0 19 19" width="19" xmlns="http://www.w3.org/2000/svg">
    <clipPath id="a">
        <path d="m.868652.860107h17.6428v18h-17.6428z" />
    </clipPath>
    <g clip-path="url(#a)">
        <path
            d="m18.5117 10.0668c0-.61179-.0496-1.22689-.1554-1.82876h-8.48911v3.46576h4.86131c-.2017 1.1177-.8499 2.1065-1.799 2.7349v2.2487h2.9002c1.7031-1.5675 2.682-3.8824 2.682-6.6206z"
            fill="#4285f4" />
        <path
            d="m9.86684 18.8601c2.42736 0 4.47436-.797 5.96586-2.1727l-2.9003-2.2487c-.8069.5489-1.8486.8598-3.06225.8598-2.34797 0-4.33878-1.5841-5.0531-3.7138h-2.99283v2.3182c1.52783 3.0392 4.63972 4.9572 8.04262 4.9572z"
            fill="#34a853" />
        <path
            d="m4.81409 11.5847c-.377-1.1178-.377-2.32817 0-3.44594v-2.3182h-2.98953c-1.276498 2.54308-1.276498 5.53924 0 8.08234z"
            fill="#fbbc04" />
        <path
            d="m9.86684 4.42186c1.28316-.01984 2.52326.46298 3.45256 1.34926l2.5695-2.56954c-1.6271-1.52783-3.7865-2.36781-6.02206-2.341354-3.4029 0-6.51479 1.918064-8.04262 4.960504l2.98953 2.3182c.711-2.13301 2.70512-3.71707 5.05309-3.71707z"
            fill="#ea4335" />
    </g>
</svg>