<svg fill="none" height="14" viewBox="0 0 14 14" width="14" xmlns="http://www.w3.org/2000/svg">
    <path clip-rule="evenodd"
        d="m6.97859.167969c-3.85321 0-6.97859 3.125381-6.97859 6.978591 0 3.08254 2.01223 5.69424 4.75229 6.63604.34251.0429.47095-.1712.47095-.3425 0-.1712 0-.5993 0-1.1987-1.9266.4281-2.35474-.9419-2.35474-.9419-.29969-.8135-.77064-1.0276-.77064-1.0276-.6422-.42809.04281-.42809.04281-.42809.68502.04281 1.07034.72779 1.07034.72779.6422 1.0704 1.62691.7707 2.01223.5994.04282-.4709.25688-.7706.42814-.9419-1.54129-.1712-3.1682-.77061-3.1682-3.46786 0-.77064.25688-1.37003.72783-1.88379-.04281-.12844-.2997-.85627.08563-1.79817 0 0 .59938-.17125 1.9266.72783.55658-.17125 1.15596-.21406 1.75535-.21406s1.19878.08562 1.75535.21406c1.32726-.89908 1.92666-.72783 1.92666-.72783.3853.9419.1284 1.66973.0856 1.84098.4281.47095.7278 1.11315.7278 1.88379 0 2.69725-1.62691 3.25385-3.16819 3.42505.25688.2141.47095.6422.47095 1.2844v1.9266c0 .1713.12844.3854.47095.3425 2.78289-.9418 4.75229-3.5535 4.75229-6.63604-.0428-3.85321-3.1682-6.978591-7.02141-6.978591z"
        fill="#222831" fill-rule="evenodd" />
</svg>