<svg height="256" viewBox="0 0 256 256" width="256" xmlns="http://www.w3.org/2000/svg">
    <g fill="#26d367" stroke-miterlimit="10" stroke-width="0"
        transform="matrix(2.81 0 0 2.81 1.406593 1.406593)">
        <path
            d="m19.587 35.932c-2.238 0-3.987 1.686-5.571 3.827-2.176-2.771-3.996-3.827-6.174-3.827-4.44 0-7.842 5.778-7.842 11.895 0 3.827 1.852 6.241 4.953 6.241 2.232 0 3.838-1.052 6.692-6.041 0 0 1.19-2.101 2.008-3.548.287.463.589.962.906 1.497l1.338 2.251c2.607 4.363 4.06 5.841 6.692 5.841 3.022 0 4.703-2.447 4.703-6.354 0-6.404-3.479-11.782-7.705-11.782zm-10.118 10.744c-2.314 3.627-3.114 4.44-4.403 4.44-1.326 0-2.114-1.164-2.114-3.24 0-4.44 2.214-8.981 4.853-8.981 1.429 0 2.623.825 4.453 3.444-1.737 2.666-2.789 4.337-2.789 4.337zm13.183 4.44c-1.318 0-1.948-.87-4.45-4.897l-1.6-2.669c-.433-.704-.849-1.353-1.248-1.945 1.442-2.226 2.632-3.335 4.047-3.335 2.939 0 5.291 4.328 5.291 9.644-.001 2.027-.665 3.202-2.04 3.202z" />
        <path
            d="m42.24 47.01-5.79-10.5h-3.42v17.24h2.79v-13.21l5.08 9.15h2.61l5.09-9.15v13.21h2.78v-17.24h-3.33z" />
        <path
            d="m63.308 41.471c-.883-.579-1.936-.868-3.159-.868-1.231 0-2.321.287-3.269.862s-1.689 1.371-2.223 2.389-.8 2.188-.8 3.51c0 1.305.273 2.463.819 3.473s1.307 1.8 2.284 2.371c.977.57 2.11.856 3.399.856 2.134 0 3.936-.673 5.406-2.02l-1.478-1.81c-.526.501-1.088.874-1.687 1.121-.599.246-1.314.369-2.143.369-1.034 0-1.89-.302-2.567-.905s-1.102-1.43-1.275-2.481h9.445v-.763c0-1.404-.238-2.627-.714-3.67-.476-1.044-1.155-1.855-2.038-2.434zm-6.692 4.833c.164-1.026.556-1.843 1.176-2.451s1.389-.911 2.309-.911c.944 0 1.707.298 2.29.893s.915 1.418.997 2.469z" />
        <path
            d="m72.119 37.143h-2.684v3.768h-2.561v2.278h2.561v6.095c0 3.169 1.449 4.753 4.347 4.753.402.001.803-.028 1.201-.086.348-.05.691-.124 1.028-.222v-2.253c-.296.049-.566.088-.813.117-.246.029-.546.043-.899.043-.797 0-1.359-.205-1.687-.616s-.493-1.096-.493-2.056v-5.775h3.891v-2.278h-3.891z" />
        <path
            d="m87.365 40.911v1.65c-.452-.617-1.048-1.114-1.736-1.447-.698-.341-1.486-.511-2.364-.511-1.166 0-2.198.288-3.097.862-.899.575-1.603 1.367-2.112 2.377s-.764 2.172-.764 3.485c0 1.305.25 2.465.751 3.479s1.188 1.81 2.063 2.389c.874.579 1.878.868 3.011.868.919 0 1.74-.183 2.463-.548.722-.365 1.318-.885 1.786-1.558v1.798h2.634v-12.844zm-.049 8.349c-.287.723-.755 1.297-1.404 1.724s-1.388.64-2.217.64c-1.125 0-2.016-.386-2.672-1.158-.657-.772-.985-1.818-.985-3.14 0-1.314.341-2.356 1.022-3.128s1.597-1.158 2.746-1.158c.813 0 1.529.211 2.149.634s1.073 1 1.361 1.73z" />
    </g>
</svg>