<svg height="256" viewBox="0 0 256 256" width="256" xmlns="http://www.w3.org/2000/svg">
    <g fill="#26d367" stroke-miterlimit="10" stroke-width="0"
        transform="matrix(2.81 0 0 2.81 1.406593 1.406593)">
        <path
            d="m.576 44.596c-.003 7.86 2.05 15.533 5.954 22.296l-6.329 23.108 23.65-6.201c6.516 3.553 13.852 5.426 21.318 5.429h.019c24.586 0 44.601-20.009 44.612-44.597.004-11.917-4.633-23.122-13.055-31.552-8.424-8.429-19.624-13.074-31.557-13.079-24.591 0-44.603 20.005-44.613 44.595m14.083 21.132-.883-1.402c-3.712-5.902-5.671-12.723-5.669-19.726.009-20.438 16.642-37.067 37.095-37.067 9.905.004 19.213 3.865 26.215 10.871 7.001 7.006 10.854 16.32 10.851 26.224-.009 20.439-16.643 37.068-37.08 37.068h-.015c-6.655-.004-13.181-1.79-18.872-5.168l-1.355-.803-14.035 3.68zm30.53 23.501c-.001 0-.001 0 0 0" />
        <path
            d="m34.038 25.95c-.835-1.856-1.714-1.894-2.508-1.926-.65-.028-1.394-.026-2.136-.026-.744 0-1.951.279-2.972 1.394-1.022 1.116-3.902 3.812-3.902 9.296 0 5.485 3.995 10.784 4.551 11.529.558.743 7.712 12.357 19.041 16.825 9.416 3.713 11.333 2.975 13.376 2.789 2.044-.186 6.595-2.696 7.524-5.299s.929-4.834.651-5.299c-.279-.465-1.022-.744-2.137-1.301-1.115-.558-6.595-3.254-7.617-3.626s-1.765-.557-2.509.559c-.743 1.115-2.878 3.625-3.528 4.368-.65.745-1.301.838-2.415.28-1.115-.559-4.705-1.735-8.964-5.532-3.314-2.955-5.551-6.603-6.201-7.719-.65-1.115-.069-1.718.489-2.274.501-.499 1.115-1.301 1.673-1.952.556-.651.742-1.116 1.113-1.859.372-.744.186-1.395-.093-1.953s-2.445-6.07-3.436-8.274" />
    </g>
</svg>