<svg fill="none" height="20" viewBox="0 0 136 20" width="136" xmlns="http://www.w3.org/2000/svg">
    <path
        d="m10.32 15-1.08-3.22h-5.1l-1.08 3.22h-2.82l4.82-13.2h3.3l4.82 13.2zm-5.48-5.26h3.72l-1.26-3.72-.6-2h-.04l-.56 1.96zm15.978-4.94c2.08 0 3.6 1.22 3.6 3.64v6.56h-2.74v-5.76c0-1.72-.74-2.28-1.78-2.28-1.16 0-2.3.76-2.3 2.76v5.28h-2.74v-10h2.46l.1 1.78c.66-1.34 1.9-1.98 3.4-1.98zm15.5628 8.54c.24 0 .48-.02.68-.08l-.2 1.66c-.36.18-.8.28-1.3.28-1.2 0-2.02-.42-2.3-1.5-.6.98-1.86 1.5-3.54 1.5-1.9 0-3.1-.88-3.1-2.56 0-1.56 1.22-2.66 3.9-3.16l2.4-.46v-.48c0-1.06-.62-1.74-1.7-1.74-1.16 0-2 .44-2.3 1.7l-2.18-.92c.42-1.7 1.92-2.78 4.36-2.78 2.78 0 4.54 1.2 4.54 3.68v4.1c0 .52.22.76.74.76zm-5.8 0c1.04 0 2.34-.54 2.34-1.6v-1.04l-2.14.48c-.88.2-1.34.52-1.34 1.18 0 .64.42.98 1.14.98zm10.8444-12.720001v11.200001c0 .94.24 1.28.98 1.28.46 0 .74-.06 1.18-.22l-.24 1.9c-.44.26-1.2.42-1.86.42-1.94 0-2.8-.9-2.8-2.98v-11.600001zm12.876 4.380001-4.0399 10.62c-.98 2.72-2.14 3.68-4.3 3.68-1.1 0-1.9-.24-2.54-.78l.68-1.94c.44.5.96.62 1.6799.62.7601 0 1.2801-.24 1.6401-1.2l.36-.86-1.1-2.6-3.06-7.54h3.04l1.88 6 .54 2 .6-2.12 1.84-5.88zm7.9929 7.56.42 1.82c-.64.52-1.68.82-2.74.82-1.98 0-3.34-.82-3.34-3.02v-5.14h-1.82v-2.04h1.82v-2.3l2.74-.76v3.06h3.24v2.04h-3.24v4.7c0 .96.52 1.38 1.38 1.38.66 0 1.12-.2 1.54-.56zm3.5142-9c-1.14 0-1.7-.48-1.7-1.46s.56-1.480001 1.7-1.480001 1.7.500001 1.7 1.480001-.56 1.46-1.7 1.46zm1.36 1.44v10h-2.74v-10zm7.4845-.2c2.82 0 4.1 1.3 4.58 2.94l-2.56.92c-.24-1.2-.88-1.82-1.94-1.82-1.56 0-2.44 1.08-2.44 3.18 0 2.14.94 3.14 2.42 3.14 1.2 0 1.88-.64 2.08-1.78l2.48.8c-.42 1.78-1.98 3.02-4.52 3.02-3.32 0-5.2-1.92-5.2-5.2s1.9-5.2 5.1-5.2zm15.9467 8.54c.24 0 .48-.02.68-.08l-.2 1.66c-.36.18-.8.28-1.3.28-1.2 0-2.02-.42-2.3-1.5-.6.98-1.86 1.5-3.54 1.5-1.9 0-3.1-.88-3.1-2.56 0-1.56 1.22-2.66 3.9-3.16l2.4-.46v-.48c0-1.06-.62-1.74-1.7-1.74-1.16 0-2 .44-2.3 1.7l-2.18-.92c.42-1.7 1.92-2.78 4.36-2.78 2.78 0 4.54 1.2 4.54 3.68v4.1c0 .52.22.76.74.76zm-5.8 0c1.04 0 2.34-.54 2.34-1.6v-1.04l-2.14.48c-.88.2-1.34.52-1.34 1.18 0 .64.42.98 1.14.98zm22.5645 1.66-3.1-5.06h-2.48v5.06h-2.7202v-13.2h5.8202c3 0 4.8 1.48 4.8 4.08 0 1.9-.98 3.22-2.7 3.76l3.48 5.36zm-5.58-11v3.84h2.74c1.6 0 2.34-.6 2.34-1.92s-.74-1.92-2.34-1.92zm21.079-2.2v2.22h-4.42v10.98h-2.76v-10.98h-4.44v-2.22zm13.048 9.56c-.8 2.58-2.92 3.84-5.6 3.84-3.92 0-6.36-2.56-6.36-6.8s2.46-6.8 6.32-6.8c2.7 0 4.72 1.12 5.46 3.42l-2.5 1.06c-.44-1.6-1.32-2.22-2.84-2.22-2.2 0-3.58 1.6-3.58 4.54 0 2.92 1.3 4.54 3.52 4.54 1.58 0 2.62-.76 3.04-2.34z"
        fill="#808080" />
</svg>